<?xml version="1.0" encoding="UTF-8" standalone="no"?>
<svg width="25px" height="25px" viewBox="0 0 25 25" version="1.1" xmlns="http://www.w3.org/2000/svg" xmlns:xlink="http://www.w3.org/1999/xlink" xmlns:sketch="http://www.bohemiancoding.com/sketch/ns">
    <!-- Generator: Sketch 3.3.2 (12043) - http://www.bohemiancoding.com/sketch -->
    <title>ic-create-new-pad</title>
    <desc>Created with Sketch.</desc>
    <defs></defs>
    <g id="Page-1" stroke="none" stroke-width="1" fill="none" fill-rule="evenodd" sketch:type="MSPage">
        <g id="Artboard-9" sketch:type="MSArtboardGroup" transform="translate(-664.000000, -563.000000)" fill="#FEFEFE">
            <g id="ic-create-new-pad" sketch:type="MSLayerGroup" transform="translate(664.000000, 563.000000)">
                <path d="M12.5,25 C19.4035594,25 25,19.4035594 25,12.5 C25,5.59644063 19.4035594,0 12.5,0 C5.59644063,0 0,5.59644063 0,12.5 C0,19.4035594 5.59644063,25 12.5,25 Z M12.5,23 C18.2989899,23 23,18.2989899 23,12.5 C23,6.70101013 18.2989899,2 12.5,2 C6.70101013,2 2,6.70101013 2,12.5 C2,18.2989899 6.70101013,23 12.5,23 Z" id="Oval-10" sketch:type="MSShapeGroup"></path>
                <path d="M11,11 L6,11 L6,14 L11,14 L11,19 L14,19 L14,14 L19,14 L19,11 L14,11 L14,6 L11,6 L11,11 Z" id="Rectangle-251" sketch:type="MSShapeGroup"></path>
            </g>
        </g>
    </g>
</svg>