<?xml version="1.0" encoding="UTF-8" standalone="no"?>
<svg width="14px" height="11px" viewBox="0 0 14 11" version="1.1" xmlns="http://www.w3.org/2000/svg" xmlns:xlink="http://www.w3.org/1999/xlink" xmlns:sketch="http://www.bohemiancoding.com/sketch/ns">
    <!-- Generator: Sketch 3.3.2 (12043) - http://www.bohemiancoding.com/sketch -->
    <title>ic-check</title>
    <desc>Created with Sketch.</desc>
    <defs></defs>
    <g id="Page-1" stroke="none" stroke-width="1" fill="none" fill-rule="evenodd" sketch:type="MSPage">
        <path d="M0.810267857,5.22202274 C0.810267857,4.99860251 0.888463764,4.80869817 1.04485792,4.65230401 L2.18429539,3.51286655 C2.34068954,3.35647239 2.53059389,3.27827648 2.75401412,3.27827648 C2.97743434,3.27827648 3.16733869,3.35647239 3.32373285,3.51286655 L5.78692854,5.98444045 L11.2830387,0.479952124 C11.4394328,0.323557965 11.6293372,0.245362059 11.8527574,0.245362059 C12.0761776,0.245362059 12.266082,0.323557965 12.4224761,0.479952124 L13.5619136,1.61938959 C13.7183077,1.77578375 13.7965036,1.96568809 13.7965036,2.18910832 C13.7965036,2.41252855 13.7183077,2.60243289 13.5619136,2.75882705 L7.49608473,8.82465589 L6.35664727,9.96409336 C6.20025311,10.1204875 6.01034877,10.1986834 5.78692854,10.1986834 C5.56350831,10.1986834 5.37360397,10.1204875 5.21720981,9.96409336 L4.07777235,8.82465589 L1.04485792,5.79174147 C0.888463764,5.63534731 0.810267857,5.44544297 0.810267857,5.22202274 L0.810267857,5.22202274 Z" id="ic-check" fill="#FEFEFE" sketch:type="MSShapeGroup"></path>
    </g>
</svg>