<?xml version="1.0" encoding="UTF-8" standalone="no"?>
<svg width="72px" height="72px" viewBox="0 0 72 72" version="1.1" xmlns="http://www.w3.org/2000/svg" xmlns:xlink="http://www.w3.org/1999/xlink" xmlns:sketch="http://www.bohemiancoding.com/sketch/ns">
    <!-- Generator: Sketch 3.3.2 (12043) - http://www.bohemiancoding.com/sketch -->
    <title>ic-download-overlay</title>
    <desc>Created with Sketch.</desc>
    <defs></defs>
    <g id="Page-1" stroke="none" stroke-width="1" fill="none" fill-rule="evenodd" sketch:type="MSPage">
        <path d="M0,36 C0,29.4687173 1.60935891,23.4453401 4.828125,17.9296875 C8.04689109,12.4140349 12.4140349,8.04689109 17.9296875,4.828125 C23.4453401,1.60935891 29.4687173,0 36,0 C42.5312827,0 48.5546599,1.60935891 54.0703125,4.828125 C59.5859651,8.04689109 63.9531089,12.4140349 67.171875,17.9296875 C70.3906411,23.4453401 72,29.4687173 72,36 C72,42.5312827 70.3906411,48.5546599 67.171875,54.0703125 C63.9531089,59.5859651 59.5859651,63.9531089 54.0703125,67.171875 C48.5546599,70.3906411 42.5312827,72 36,72 C29.4687173,72 23.4453401,70.3906411 17.9296875,67.171875 C12.4140349,63.9531089 8.04689109,59.5859651 4.828125,54.0703125 C1.60935891,48.5546599 0,42.5312827 0,36 L0,36 Z M10.5,36 C10.5,40.6250231 11.6406136,44.8906055 13.921875,48.796875 C16.2031364,52.7031445 19.2968555,55.7968636 23.203125,58.078125 C27.1093945,60.3593864 31.3749769,61.5 36,61.5 C40.6250231,61.5 44.8906055,60.3593864 48.796875,58.078125 C52.7031445,55.7968636 55.7968636,52.7031445 58.078125,48.796875 C60.3593864,44.8906055 61.5,40.6250231 61.5,36 C61.5,31.3749769 60.3593864,27.1093945 58.078125,23.203125 C55.7968636,19.2968555 52.7031445,16.2031364 48.796875,13.921875 C44.8906055,11.6406136 40.6250231,10.5 36,10.5 C31.3749769,10.5 27.1093945,11.6406136 23.203125,13.921875 C19.2968555,16.2031364 16.2031364,19.2968555 13.921875,23.203125 C11.6406136,27.1093945 10.5,31.3749769 10.5,36 L10.5,36 Z M19.59375,36.9375 C19.8437513,36.3124969 20.3124966,36 21,36 L30,36 L30,19.5 C30,19.0624978 30.1406236,18.7031264 30.421875,18.421875 C30.7031264,18.1406236 31.0624978,18 31.5,18 L40.5,18 C40.9375022,18 41.2968736,18.1406236 41.578125,18.421875 C41.8593764,18.7031264 42,19.0624978 42,19.5 L42,36 L51,36 C51.4375022,36 51.7968736,36.1406236 52.078125,36.421875 C52.3593764,36.7031264 52.5,37.0624978 52.5,37.5 C52.5,37.8750019 52.3437516,38.2499981 52.03125,38.625 L37.078125,53.578125 C36.7343733,53.8593764 36.3750019,54 36,54 C35.6249981,54 35.2656267,53.8593764 34.921875,53.578125 L19.921875,38.578125 C19.4531227,38.0781225 19.3437488,37.531253 19.59375,36.9375 L19.59375,36.9375 Z" id="ic-download-overlay" opacity="0.623659049" fill="#FEFEFE" sketch:type="MSShapeGroup"></path>
    </g>
</svg>