<?xml version="1.0" encoding="UTF-8" standalone="no"?>
<svg width="18px" height="18px" viewBox="0 0 18 18" version="1.1" xmlns="http://www.w3.org/2000/svg" xmlns:xlink="http://www.w3.org/1999/xlink" xmlns:sketch="http://www.bohemiancoding.com/sketch/ns">
    <!-- Generator: Sketch 3.3.2 (12043) - http://www.bohemiancoding.com/sketch -->
    <title>ic-drag</title>
    <desc>Created with Sketch.</desc>
    <defs></defs>
    <g id="Page-1" stroke="none" stroke-width="1" fill="none" fill-rule="evenodd" sketch:type="MSPage">
        <g id="Artboard-7" sketch:type="MSArtboardGroup" transform="translate(-572.000000, -121.000000)" fill="#FFFFFF">
            <path d="M574.769539,133.011483 C574.895318,133.137262 575.039523,133.209364 575.218978,133.209364 C575.399234,133.209364 575.542638,133.137262 575.668417,133.011483 C575.794196,132.885704 575.866299,132.7423 575.866299,132.562044 L575.866299,130.79492 L580.205882,130.79492 L580.205882,135.133701 L578.437956,135.133701 C578.2577,135.133701 578.114296,135.205804 577.988517,135.331583 C577.862738,135.457362 577.790636,135.600766 577.790636,135.781022 C577.790636,135.960477 577.862738,136.104682 577.988517,136.230461 L580.541748,138.802119 C580.667527,138.927897 580.829357,139 581.009614,139 C581.171444,139 581.333274,138.927897 581.459053,138.802119 L584.012284,136.230461 C584.138063,136.104682 584.210166,135.960477 584.210166,135.781022 C584.210166,135.600766 584.138063,135.457362 584.012284,135.331583 C583.886505,135.205804 583.7423,135.133701 583.562845,135.133701 L581.79492,135.133701 L581.79492,130.79492 L586.134502,130.79492 L586.134502,132.562044 C586.134502,132.7423 586.205804,132.885704 586.332384,133.011483 C586.458163,133.137262 586.601567,133.209364 586.781823,133.209364 C586.961278,133.209364 587.105483,133.137262 587.231262,133.011483 L589.80292,130.458252 C589.928699,130.332473 590,130.170643 590,129.990386 C590,129.829357 589.928699,129.666726 589.80292,129.540947 L587.231262,126.987716 C587.105483,126.861937 586.961278,126.789834 586.781823,126.789834 C586.601567,126.789834 586.458163,126.861937 586.332384,126.987716 C586.205804,127.113495 586.134502,127.2577 586.134502,127.437155 L586.134502,129.20508 L581.79492,129.20508 L581.79492,124.865498 L583.562845,124.865498 C583.7423,124.865498 583.886505,124.794196 584.012284,124.667616 C584.138063,124.541837 584.210166,124.398433 584.210166,124.218177 C584.210166,124.038722 584.138063,123.894517 584.012284,123.768738 L581.459053,121.19708 C581.333274,121.071301 581.171444,121 581.009614,121 C580.829357,121 580.667527,121.071301 580.541748,121.19708 L577.988517,123.768738 C577.862738,123.894517 577.790636,124.038722 577.790636,124.218177 C577.790636,124.398433 577.862738,124.541837 577.988517,124.667616 C578.114296,124.794196 578.2577,124.865498 578.437956,124.865498 L580.205882,124.865498 L580.205882,129.20508 L575.866299,129.20508 L575.866299,127.437155 C575.866299,127.2577 575.794196,127.113495 575.668417,126.987716 C575.542638,126.861937 575.399234,126.789834 575.218978,126.789834 C575.039523,126.789834 574.895318,126.861937 574.769539,126.987716 L572.197881,129.540947 C572.072103,129.666726 572,129.829357 572,129.990386 C572,130.170643 572.072103,130.332473 572.197881,130.458252 L574.769539,133.011483 Z" id="ic-drag" sketch:type="MSShapeGroup"></path>
        </g>
    </g>
</svg>