<?xml version="1.0" encoding="UTF-8" standalone="no"?>
<svg width="24px" height="24px" viewBox="0 0 24 24" version="1.1" xmlns="http://www.w3.org/2000/svg" xmlns:xlink="http://www.w3.org/1999/xlink" xmlns:sketch="http://www.bohemiancoding.com/sketch/ns">
    <!-- Generator: Sketch 3.3.2 (12043) - http://www.bohemiancoding.com/sketch -->
    <title>ic-dashboard</title>
    <desc>Created with Sketch.</desc>
    <defs></defs>
    <g id="Page-1" stroke="none" stroke-width="1" fill="none" fill-rule="evenodd" sketch:type="MSPage">
        <g id="Artboard-11" sketch:type="MSArtboardGroup" transform="translate(-59.000000, -183.000000)" fill="#29A2D9">
            <path d="M59,183.995577 C59,183.445735 59.444837,183 59.9955775,183 L69.0044225,183 C69.5542648,183 70,183.444837 70,183.995577 L70,193.004423 C70,193.554265 69.555163,194 69.0044225,194 L59.9955775,194 C59.4457352,194 59,193.555163 59,193.004423 L59,183.995577 Z M59,196.995577 C59,196.445735 59.444837,196 59.9955775,196 L69.0044225,196 C69.5542648,196 70,196.444837 70,196.995577 L70,206.004423 C70,206.554265 69.555163,207 69.0044225,207 L59.9955775,207 C59.4457352,207 59,206.555163 59,206.004423 L59,196.995577 Z M72,183.995577 C72,183.445735 72.444837,183 72.9955775,183 L82.0044225,183 C82.5542648,183 83,183.444837 83,183.995577 L83,193.004423 C83,193.554265 82.555163,194 82.0044225,194 L72.9955775,194 C72.4457352,194 72,193.555163 72,193.004423 L72,183.995577 Z M72,196.995577 C72,196.445735 72.444837,196 72.9955775,196 L82.0044225,196 C82.5542648,196 83,196.444837 83,196.995577 L83,206.004423 C83,206.554265 82.555163,207 82.0044225,207 L72.9955775,207 C72.4457352,207 72,206.555163 72,206.004423 L72,196.995577 Z" id="ic-dashboard" sketch:type="MSShapeGroup"></path>
        </g>
    </g>
</svg>