<?xml version="1.0" encoding="UTF-8" standalone="no"?>
<svg width="41px" height="46px" viewBox="0 0 41 46" version="1.1" xmlns="http://www.w3.org/2000/svg" xmlns:xlink="http://www.w3.org/1999/xlink" xmlns:sketch="http://www.bohemiancoding.com/sketch/ns">
    <!-- Generator: Sketch 3.3.2 (12043) - http://www.bohemiancoding.com/sketch -->
    <title>ic-format-pdf</title>
    <desc>Created with Sketch.</desc>
    <defs></defs>
    <g id="Page-1" stroke="none" stroke-width="1" fill="none" fill-rule="evenodd" sketch:type="MSPage">
        <g id="Artboard-5" sketch:type="MSArtboardGroup" transform="translate(-648.000000, -809.000000)">
            <g id="ic-format-pdf" sketch:type="MSLayerGroup" transform="translate(648.500000, 809.000000)">
                <path d="M37,11 L40,11 L40,42.9995558 C40,44.6566554 38.6576906,46 36.9934988,46 L3.0065012,46 C1.34605644,46 0,44.6482195 0,42.9995558 L0,3.00044415 C0,1.34334461 1.34230941,0 3.0065012,0 L29,0 L29,-1.33226763e-15 L29,3 L3,3 L3,43 L37,43 L37,11 Z" id="Rectangle-1" fill="#F02214" sketch:type="MSShapeGroup"></path>
                <path d="M37,14 L29.9993692,14 C27.7905786,14 26,12.2075324 26,10.00077 L26,2 L26,2 L29,2 L29,11 L37,11 L37,14 Z" id="Rectangle-4" fill="#F02214" sketch:type="MSShapeGroup"></path>
                <path d="M30,0 L40,10 L30,10 L30,0 Z" id="Rectangle-8" fill="#F02214" sketch:type="MSShapeGroup"></path>
                <path d="M17.287329,9.27911603 C11.287329,7.27911603 23.287329,33.279116 32.287329,28.279116 C41.287329,23.279116 5.28732875,26.279116 6.28732898,35.279116 C7.28732921,44.279116 23.287329,11.279116 17.287329,9.27911603 Z" id="Path-1" stroke="#F02214" stroke-width="1.5" sketch:type="MSShapeGroup"></path>
                <ellipse id="Oval-1" fill="#F02214" sketch:type="MSShapeGroup" cx="32.5" cy="32.5" rx="1.5" ry="1.5"></ellipse>
            </g>
        </g>
    </g>
</svg>