<?xml version="1.0" encoding="UTF-8" standalone="no"?>
<svg width="40px" height="46px" viewBox="0 0 40 46" version="1.1" xmlns="http://www.w3.org/2000/svg" xmlns:xlink="http://www.w3.org/1999/xlink" xmlns:sketch="http://www.bohemiancoding.com/sketch/ns">
    <!-- Generator: Sketch 3.3.2 (12043) - http://www.bohemiancoding.com/sketch -->
    <title>ic-format-video</title>
    <desc>Created with Sketch.</desc>
    <defs></defs>
    <g id="Page-1" stroke="none" stroke-width="1" fill="none" fill-rule="evenodd" sketch:type="MSPage">
        <g id="Artboard-5" sketch:type="MSArtboardGroup" transform="translate(-522.000000, -809.000000)" fill="#68C0B0">
            <g id="ic-format-video" sketch:type="MSLayerGroup" transform="translate(522.000000, 809.000000)">
                <path d="M37,11 L40,11 L40,42.9995558 C40,44.6566554 38.6576906,46 36.9934988,46 L3.0065012,46 C1.34605644,46 0,44.6482195 0,42.9995558 L0,3.00044415 C0,1.34334461 1.34230941,0 3.0065012,0 L29,0 L29,-1.33226763e-15 L29,3 L3,3 L3,43 L37,43 L37,11 Z" id="Rectangle-1" sketch:type="MSShapeGroup"></path>
                <path d="M37,14 L29.9993692,14 C27.7905786,14 26,12.2075324 26,10.00077 L26,2 L26,2 L29,2 L29,11 L37,11 L37,14 Z" id="Rectangle-4" sketch:type="MSShapeGroup"></path>
                <path d="M30,0 L40,10 L30,10 L30,0 Z" id="Rectangle-8" sketch:type="MSShapeGroup"></path>
                <path d="M19.5,39 C26.4035594,39 32,33.4035594 32,26.5 C32,19.5964406 26.4035594,14 19.5,14 C12.5964406,14 7,19.5964406 7,26.5 C7,33.4035594 12.5964406,39 19.5,39 Z M19.5,36.2142857 C24.8650519,36.2142857 29.2142857,31.8650519 29.2142857,26.5 C29.2142857,21.1349481 24.8650519,16.7857143 19.5,16.7857143 C14.1349481,16.7857143 9.78571429,21.1349481 9.78571429,26.5 C9.78571429,31.8650519 14.1349481,36.2142857 19.5,36.2142857 Z" id="Oval-8" sketch:type="MSShapeGroup"></path>
                <path d="M16.2,21 L25,26.6571429 L16.2,32.3142857 L16.2,21 Z" id="Rectangle-239" sketch:type="MSShapeGroup"></path>
            </g>
        </g>
    </g>
</svg>