<?xml version="1.0" encoding="UTF-8" standalone="no"?>
<svg width="41px" height="46px" viewBox="0 0 41 46" version="1.1" xmlns="http://www.w3.org/2000/svg" xmlns:xlink="http://www.w3.org/1999/xlink" xmlns:sketch="http://www.bohemiancoding.com/sketch/ns">
    <!-- Generator: Sketch 3.3.2 (12043) - http://www.bohemiancoding.com/sketch -->
    <title>ic-format-excel</title>
    <desc>Created with Sketch.</desc>
    <defs></defs>
    <g id="Page-1" stroke="none" stroke-width="1" fill="none" fill-rule="evenodd" sketch:type="MSPage">
        <g id="Artboard-5" sketch:type="MSArtboardGroup" transform="translate(-648.000000, -743.000000)" fill="#4BB868">
            <g id="ic-format-excel" sketch:type="MSLayerGroup" transform="translate(648.500000, 743.000000)">
                <path d="M37,11 L40,11 L40,42.9995558 C40,44.6566554 38.6576906,46 36.9934988,46 L3.0065012,46 C1.34605644,46 0,44.6482195 0,42.9995558 L0,3.00044415 C0,1.34334461 1.34230941,0 3.0065012,0 L29,0 L29,-1.33226763e-15 L29,3 L3,3 L3,43 L37,43 L37,11 Z" id="Rectangle-1" sketch:type="MSShapeGroup"></path>
                <path d="M37,14 L29.9993692,14 C27.7905786,14 26,12.2075324 26,10.00077 L26,2 L26,2 L29,2 L29,11 L37,11 L37,14 Z" id="Rectangle-4" sketch:type="MSShapeGroup"></path>
                <path d="M30,0 L40,10 L30,10 L30,0 Z" id="Rectangle-8" sketch:type="MSShapeGroup"></path>
                <path d="M8,38 L8,23.5 L8,21 L31,21 L31,23.5 L31,23.5 L31,38 L31,40 L8,40 L8,38 Z M11,37 L11,32 L18,32 L18,37 L11,37 Z M21,37 L21,32 L28,32 L28,37 L21,37 Z M28,24 L21,24 L21,24 L21,29 L28,29 L28,24 Z M18,24 L11,24 L11,24 L11,29 L18,29 L18,24 L18,24 Z" id="Rectangle-9" sketch:type="MSShapeGroup"></path>
                <text id="E" sketch:type="MSTextLayer" font-family="Helvetica Neue" font-size="14" font-weight="420">
                    <tspan x="8" y="18">E</tspan>
                </text>
            </g>
        </g>
    </g>
</svg>