<?xml version="1.0" encoding="UTF-8" standalone="no"?>
<svg width="40px" height="46px" viewBox="0 0 40 46" version="1.1" xmlns="http://www.w3.org/2000/svg" xmlns:xlink="http://www.w3.org/1999/xlink" xmlns:sketch="http://www.bohemiancoding.com/sketch/ns">
    <!-- Generator: Sketch 3.3.2 (12043) - http://www.bohemiancoding.com/sketch -->
    <title>ic-format-image</title>
    <desc>Created with Sketch.</desc>
    <defs></defs>
    <g id="Page-1" stroke="none" stroke-width="1" fill="none" fill-rule="evenodd" sketch:type="MSPage">
        <g id="Artboard-5" sketch:type="MSArtboardGroup" transform="translate(-592.000000, -809.000000)">
            <g id="ic-format-image" sketch:type="MSLayerGroup" transform="translate(592.000000, 809.000000)">
                <path d="M37,11 L40,11 L40,42.9995558 C40,44.6566554 38.6576906,46 36.9934988,46 L3.0065012,46 C1.34605644,46 0,44.6482195 0,42.9995558 L0,3.00044415 C0,1.34334461 1.34230941,0 3.0065012,0 L29,0 L29,-1.33226763e-15 L29,3 L3,3 L3,43 L37,43 L37,11 Z" id="Rectangle-1" fill="#F6A623" sketch:type="MSShapeGroup"></path>
                <path d="M37,14 L29.9993692,14 C27.7905786,14 26,12.2075324 26,10.00077 L26,2 L26,2 L29,2 L29,11 L37,11 L37,14 Z" id="Rectangle-4" fill="#F6A623" sketch:type="MSShapeGroup"></path>
                <path d="M30,0 L40,10 L30,10 L30,0 Z" id="Rectangle-8" fill="#F6A623" sketch:type="MSShapeGroup"></path>
                <path d="M7.2,35.5 L14.48,25 L19.68,31 L25.92,19 L33.2,35.6 L7.2,35.5 Z" id="Path-19" fill="#F5A623" sketch:type="MSShapeGroup"></path>
                <circle id="Oval-6" fill="#F5A623" sketch:type="MSShapeGroup" cx="13.2" cy="16" r="4"></circle>
            </g>
        </g>
    </g>
</svg>